<svg xmlns="http://www.w3.org/2000/svg" viewBox="0 0 512 512"><path d="M469.3 0H42.7C18.8 0 0 18.8 0 42.7v426.7C0 493.2 18.8 512 42.7 512h196.3 102.4 128C493.2 512 512 493.2 512 469.3V42.7C512 18.8 493.2 0 469.3 0zM256 494.9V324.3h-68.3V256H256v-59.7c0-48.6 37.5-89.6 85.3-93.9h76.8v68.3h-68.3c-14.5 0-25.6 11.1-25.6 25.6V256H409.6v68.3h-85.3v170.7H256zM494.9 469.3c0 14.5-11.1 25.6-25.6 25.6h-128v-153.6h85.3v-102.4h-85.3v-42.7c0-5.1 3.4-8.5 8.5-8.5H435.2v-102.4h-94.7c-57.2 5.1-101.5 53.8-101.5 110.9v42.7h-68.3v102.4h68.3v153.6H42.7c-14.5 0-25.6-11.1-25.6-25.6V42.7c0-14.5 11.1-25.6 25.6-25.6h426.7c14.5 0 25.6 11.1 25.6 25.6V469.3z"/></svg>