<svg xmlns="http://www.w3.org/2000/svg" viewBox="0 0 31.1 31.1"><style>.a{fill:#010002;}</style><path d="M23.1 31.1H7.9C3.6 31.1 0 27.5 0 23.1V7.9C0 3.6 3.6 0 7.9 0h15.2c4.4 0 7.9 3.6 7.9 7.9v15.2C31.1 27.5 27.5 31.1 23.1 31.1zM7.9 1.8c-3.4 0-6.2 2.8-6.2 6.2v15.2c0 3.4 2.8 6.2 6.2 6.2h15.2c3.4 0 6.2-2.8 6.2-6.2V7.9c0-3.4-2.8-6.2-6.2-6.2H7.9z" class="a"/><path d="M30.2 11.7H19.2c-0.5 0-0.9-0.4-0.9-0.9 0-0.5 0.4-0.9 0.9-0.9h10.9c0.5 0 0.9 0.4 0.9 0.9C31.1 11.3 30.7 11.7 30.2 11.7z" class="a"/><path d="M11.6 11.7H0.9C0.4 11.7 0 11.3 0 10.8c0-0.5 0.4-0.9 0.9-0.9h10.7c0.5 0 0.9 0.4 0.9 0.9C12.5 11.3 12.1 11.7 11.6 11.7z" class="a"/><path d="M15.5 22.5c-3.8 0-6.9-3.1-6.9-6.9 0-3.8 3.1-6.9 6.9-6.9 3.8 0 6.9 3.1 6.9 6.9C22.5 19.3 19.3 22.5 15.5 22.5zM15.5 10.4c-2.8 0-5.1 2.3-5.1 5.1s2.3 5.1 5.1 5.1c2.8 0 5.1-2.3 5.1-5.1S18.4 10.4 15.5 10.4z" class="a"/><path d="M25.6 9.4h-4c-0.5 0-0.9-0.4-0.9-0.9V4.5c0-0.5 0.4-0.9 0.9-0.9h4c0.5 0 0.9 0.4 0.9 0.9v4C26.4 9 26 9.4 25.6 9.4zM22.5 7.6h2.2V5.4H22.5V7.6z" class="a"/></svg>