<svg xmlns="http://www.w3.org/2000/svg" viewBox="0 0 512 512"><path d="M504 93c4.4 0 8-3.6 8-8V42.2C512 18.9 493.1 0 469.8 0H42.2C18.9 0 0 18.9 0 42.2v427.6C0 493.1 18.9 512 42.2 512h427.6C493.1 512 512 493.1 512 469.8V119.2c0-4.4-3.6-8-8-8 -4.4 0-8 3.6-8 8v350.6c0 14.4-11.7 26.2-26.2 26.2H42.2c-14.4 0-26.2-11.7-26.2-26.2V42.2c0-14.4 11.7-26.2 26.2-26.2h427.6c14.4 0 26.2 11.7 26.2 26.2v42.8C496 89.4 499.6 93 504 93z"/><path d="M153.4 238.9c4.4 0 8-3.6 8-8v-34.7c0-4.4-3.6-8-8-8H85c-4.4 0-8 3.6-8 8v230.9c0 4.4 3.6 8 8 8h68.4c4.4 0 8-3.6 8-8V266.2c0-4.4-3.6-8-8-8s-8 3.6-8 8v152.9H93V204.2h52.4v26.7C145.4 235.3 149 238.9 153.4 238.9z"/><path d="M408.1 210.1c-16.3-14-37.5-22-58-22 -33.9 0-55.4 11.3-68.9 25.2v-17.1c0-4.4-3.6-8-8-8h-68.4c-4.4 0-8 3.6-8 8v230.9c0 4.4 3.6 8 8 8h68.4c4.4 0 8-3.6 8-8V315.9c0-21.5 18-34.7 34.7-34.7 20.1 0 34.7 14.6 34.7 34.7v111.2c0 4.4 3.6 8 8 8h68.4c4.4 0 8-3.6 8-8V264.6C435 244.3 425.5 225 408.1 210.1zM419 419H366.6V315.9c0-28.9-21.8-50.8-50.8-50.8 -24.4 0-50.8 19.4-50.8 50.8v103.1H212.7V204.2h52.4v34.7c0 3.7 2.6 6.9 6.1 7.8 3.7 0.9 7.6-1 9.2-4.4 11.9-25.3 35.3-38.1 69.7-38.1 32.5 0 68.9 25.8 68.9 60.4V419z"/><path d="M119.2 77c-23.3 0-42.2 18.9-42.2 42.2s18.9 42.2 42.2 42.2 42.2-18.9 42.2-42.2S142.5 77 119.2 77zM119.2 145.4c-14.4 0-26.2-11.7-26.2-26.2s11.7-26.2 26.2-26.2 26.2 11.7 26.2 26.2S133.6 145.4 119.2 145.4z"/></svg>