<svg id="svg" class="logo" version="1.1" width="60" height="60" xmlns="http://www.w3.org/2000/svg" viewBox="0 0 400 400" xmlns:xlink="http://www.w3.org/1999/xlink" style="display: block;"><g id="svgg"><path id="path0" d="M56.992 1.650 C 56.927 14.803,54.198 19.870,45.658 22.694 C 44.035 23.231,44.001 23.234,42.746 22.919 C 38.917 21.959,36.520 20.882,34.860 19.379 C 33.317 17.980,31.912 17.121,29.667 16.203 L 28.038 15.537 26.169 16.185 C 20.262 18.234,18.470 20.017,16.709 25.600 C 15.743 28.661,16.649 30.826,20.018 33.514 C 22.318 35.350,22.407 35.528,22.822 39.160 C 23.415 44.342,23.182 45.709,21.181 48.805 C 17.002 55.271,13.854 56.600,2.720 56.600 L 0.000 56.600 0.000 65.779 L 0.000 74.958 2.350 75.048 C 4.582 75.134,4.795 75.181,6.600 75.978 C 7.645 76.439,9.310 77.046,10.300 77.327 C 16.396 79.053,20.993 83.561,23.111 89.890 L 23.812 91.986 23.398 93.643 C 23.170 94.554,22.656 96.335,22.256 97.600 L 21.530 99.900 19.600 101.800 C 16.079 105.267,15.277 107.525,16.580 110.305 C 18.599 114.615,21.849 117.437,27.122 119.459 C 28.392 119.946,29.888 119.118,32.577 116.439 C 35.550 113.477,35.501 113.502,39.675 112.799 C 44.034 112.064,43.947 112.064,46.210 112.803 C 52.105 114.730,55.768 118.924,57.409 125.628 C 59.076 132.442,59.285 132.734,63.600 134.291 C 67.612 135.739,68.388 135.739,72.400 134.291 C 76.716 132.734,77.321 131.938,78.904 125.739 C 81.372 116.072,82.666 114.452,89.818 112.076 L 91.937 111.372 95.948 111.672 C 101.075 112.054,101.851 112.418,104.356 115.606 C 105.900 117.572,107.255 118.749,108.279 119.014 C 111.639 119.883,112.490 120.358,113.270 121.800 C 114.103 123.340,114.100 123.708,113.227 126.323 C 112.790 127.631,112.241 129.510,112.007 130.500 C 111.144 134.141,110.050 136.341,108.024 138.506 C 106.126 140.535,105.178 143.504,103.508 152.649 C 102.719 156.967,102.191 158.224,100.244 160.419 C 98.021 162.923,97.378 164.378,95.889 170.257 C 94.783 174.626,93.934 176.618,92.231 178.840 C 90.057 181.677,88.867 185.107,87.512 192.449 C 86.718 196.751,85.967 198.616,84.185 200.711 C 81.701 203.630,80.119 208.214,79.393 214.586 C 79.186 216.409,78.881 218.345,78.716 218.889 C 78.309 220.228,79.037 220.879,82.321 222.115 L 83.700 222.635 119.927 222.609 L 156.154 222.583 157.305 223.128 C 158.808 223.840,160.604 225.519,161.315 226.877 L 161.881 227.958 160.016 232.329 C 157.853 237.396,157.337 238.393,155.888 240.300 C 154.251 242.455,153.536 244.201,152.408 248.800 C 151.190 253.762,150.340 255.658,148.201 258.176 C 146.183 260.554,144.826 263.346,143.482 267.891 C 142.570 270.976,141.556 273.117,140.115 275.000 C 138.485 277.129,135.800 283.161,135.800 284.693 C 135.800 286.563,133.357 291.776,131.670 293.505 C 129.711 295.513,128.782 297.382,127.715 301.464 C 126.753 305.146,126.055 306.607,123.866 309.528 C 122.315 311.597,120.999 314.244,120.398 316.500 C 118.544 323.464,117.981 324.883,116.353 326.702 C 114.253 329.046,113.525 330.459,112.418 334.328 C 110.451 341.204,110.500 341.102,107.821 343.900 C 105.451 346.375,105.044 347.239,104.009 352.000 C 102.877 357.200,102.308 358.679,100.244 361.773 C 97.986 365.160,97.186 366.808,95.897 370.735 C 94.639 374.568,94.112 375.487,92.191 377.194 C 89.870 379.257,89.842 379.313,88.971 383.645 C 87.881 389.059,88.186 390.260,91.013 391.703 L 91.925 392.169 92.589 391.649 C 93.556 390.892,94.869 389.020,95.376 387.673 C 96.167 385.572,96.955 384.724,99.059 383.715 C 101.374 382.603,102.553 381.578,103.889 379.513 C 105.055 377.710,105.845 376.931,107.924 375.537 C 109.622 374.398,110.309 373.584,111.482 371.324 C 112.945 368.504,113.803 367.459,116.275 365.488 C 116.812 365.060,117.751 364.033,118.362 363.205 C 119.774 361.293,121.275 359.797,123.300 358.287 C 124.720 357.227,125.102 356.789,126.700 354.384 C 129.162 350.680,131.296 347.905,132.356 347.031 C 133.654 345.960,136.262 342.946,137.540 341.038 C 138.398 339.756,139.084 339.032,140.532 337.880 C 142.855 336.031,144.104 334.737,145.440 332.800 C 146.008 331.975,147.516 330.265,148.791 329.000 C 150.710 327.095,151.261 326.408,151.995 325.000 C 153.057 322.963,154.200 321.768,156.206 320.597 C 157.956 319.575,159.498 318.104,160.288 316.700 C 161.559 314.444,162.338 313.500,164.033 312.163 C 165.881 310.705,166.724 309.692,167.820 307.608 C 168.677 305.978,170.305 304.209,171.769 303.316 C 173.162 302.465,174.512 301.082,175.495 299.500 C 176.524 297.844,177.600 296.772,179.658 295.356 C 181.813 293.872,182.520 293.064,183.715 290.723 C 185.596 287.035,190.820 281.299,194.499 278.882 C 197.084 277.184,197.448 276.811,198.929 274.336 C 201.098 270.715,202.954 268.274,204.872 266.520 C 208.711 263.009,215.647 255.529,216.785 253.671 C 218.168 251.414,219.365 250.158,221.000 249.249 C 223.189 248.032,225.153 246.637,226.599 245.273 L 227.980 243.971 228.577 244.635 C 229.560 245.729,230.980 248.232,231.908 250.507 C 233.147 253.548,233.864 254.631,235.843 256.445 C 238.683 259.049,239.109 260.162,239.895 267.034 C 240.131 269.098,238.619 272.792,236.339 275.722 C 234.821 277.673,233.709 279.632,232.699 282.134 C 230.644 287.222,229.938 287.499,217.730 288.008 C 211.823 288.254,211.689 288.281,210.100 289.539 C 207.789 291.370,207.659 292.001,207.463 302.337 L 207.353 308.174 208.160 309.837 C 209.057 311.688,210.689 313.959,211.542 314.544 C 213.310 315.758,220.828 317.969,226.700 319.004 C 229.825 319.554,232.206 321.818,233.581 325.548 C 234.377 327.708,234.841 328.599,236.104 330.400 C 237.794 332.810,239.129 335.654,240.001 338.702 L 240.375 340.010 239.901 341.855 C 238.523 347.231,238.069 348.163,235.717 350.447 C 233.193 352.899,232.001 354.851,231.517 357.330 C 231.326 358.303,230.907 360.214,230.584 361.577 L 229.998 364.053 232.049 368.042 C 234.918 373.621,235.132 373.808,241.600 376.353 L 243.900 377.258 245.400 376.936 C 246.225 376.759,247.980 376.386,249.300 376.108 C 252.704 375.389,253.704 374.810,255.459 372.545 C 258.170 369.046,258.795 368.704,263.924 367.908 L 268.026 367.272 269.863 367.744 C 275.313 369.145,277.733 370.152,280.276 372.074 C 281.059 372.666,282.420 373.521,283.300 373.975 C 286.758 375.757,288.521 378.178,289.400 382.351 C 290.154 385.937,290.795 388.103,291.979 391.074 C 293.407 394.655,293.600 395.464,293.600 397.881 L 293.600 400.000 305.900 400.000 L 318.200 400.000 318.201 398.050 C 318.201 396.915,318.370 395.229,318.606 394.014 C 319.088 391.533,319.664 387.009,320.010 383.000 C 320.397 378.507,321.691 375.942,324.500 374.104 C 325.050 373.744,326.238 372.777,327.139 371.956 C 329.057 370.208,330.616 369.391,334.100 368.308 C 335.420 367.898,337.302 367.253,338.282 366.876 L 340.064 366.191 344.082 366.414 L 348.100 366.638 349.817 367.537 C 351.844 368.598,353.164 369.561,355.388 371.600 C 357.665 373.688,359.863 375.039,362.747 376.125 L 364.000 376.597 365.348 376.089 C 370.642 374.096,373.979 371.004,376.731 365.538 L 377.452 364.107 377.555 360.161 L 377.657 356.215 375.979 352.068 C 374.153 347.558,374.266 347.725,371.015 344.700 C 369.795 343.564,368.504 341.693,368.168 340.573 C 367.891 339.649,368.432 332.526,368.875 331.272 C 369.489 329.531,370.640 327.590,371.981 326.036 C 372.758 325.135,373.617 323.959,373.889 323.422 C 374.770 321.683,377.130 318.336,378.532 316.837 L 379.900 315.375 383.200 314.807 C 394.311 312.897,394.957 312.808,397.650 312.804 L 400.000 312.800 400.000 300.600 L 400.000 288.400 397.950 288.396 C 396.565 288.393,395.154 288.235,393.600 287.909 C 384.568 286.012,382.911 285.628,380.800 284.943 C 380.415 284.818,379.335 284.167,378.400 283.496 C 376.477 282.117,374.853 281.121,373.097 280.243 C 370.514 278.952,369.517 277.382,367.911 272.083 C 366.701 268.086,366.677 267.962,366.844 266.565 C 366.938 265.779,367.136 263.958,367.284 262.518 C 367.680 258.667,368.766 256.710,371.776 254.418 C 373.865 252.828,374.208 252.335,375.061 249.700 C 376.853 244.167,376.851 244.191,375.598 240.442 C 374.172 236.177,373.298 234.770,371.510 233.858 C 371.174 233.686,369.340 232.604,367.434 231.453 L 363.968 229.359 360.134 229.598 L 356.300 229.838 353.500 231.010 C 351.960 231.655,350.073 232.418,349.307 232.706 C 347.510 233.380,346.269 234.304,345.016 235.899 C 342.704 238.841,340.803 239.755,337.943 239.302 C 332.343 238.414,331.496 238.105,328.877 235.993 C 327.912 235.215,326.443 234.261,325.611 233.873 C 324.780 233.485,323.890 233.066,323.633 232.941 C 322.853 232.562,320.933 230.355,320.373 229.193 C 319.838 228.085,319.653 226.991,318.596 218.700 C 317.682 211.533,317.791 212.061,317.041 211.185 C 316.033 210.008,313.821 208.974,310.025 207.907 C 306.580 206.938,299.333 207.206,293.250 208.526 C 291.604 208.883,290.482 209.756,289.555 211.400 C 288.779 212.778,288.128 217.559,287.805 224.250 C 287.578 228.968,286.238 231.583,283.621 232.418 C 280.862 233.299,278.317 234.603,275.800 236.426 C 274.052 237.692,272.080 238.651,269.857 239.316 L 268.015 239.867 266.357 239.416 C 263.104 238.532,261.003 237.427,258.900 235.495 C 256.395 233.193,253.515 231.689,249.915 230.804 C 246.391 229.937,244.004 229.095,243.424 228.515 C 242.848 227.939,242.969 227.664,244.516 226.032 C 245.557 224.934,246.627 222.979,247.107 221.300 C 247.771 218.977,249.012 217.468,251.739 215.670 C 253.743 214.348,254.532 213.450,255.793 211.055 C 257.004 208.755,257.867 207.658,259.763 206.007 C 260.580 205.295,261.749 204.035,262.361 203.207 C 263.771 201.296,265.271 199.801,267.300 198.283 C 268.572 197.332,269.203 196.657,270.380 194.993 C 271.327 193.653,272.844 191.929,274.597 190.200 C 277.066 187.763,277.570 187.139,279.759 183.800 C 281.093 181.765,282.326 179.899,282.498 179.654 C 282.671 179.409,283.552 178.650,284.456 177.967 C 286.606 176.343,288.434 174.480,289.821 172.498 C 290.437 171.617,291.382 170.537,291.921 170.098 C 293.907 168.480,295.110 166.962,296.357 164.500 C 297.145 162.944,298.467 161.612,300.261 160.565 C 302.102 159.490,303.499 158.087,304.594 156.212 C 305.660 154.385,306.693 153.243,308.157 152.271 C 311.969 149.740,312.565 147.784,311.191 142.309 C 310.690 140.312,310.434 139.925,309.196 139.298 L 308.199 138.793 271.149 138.746 L 234.100 138.700 232.862 138.236 C 230.575 137.378,229.307 135.797,228.773 133.136 L 228.561 132.083 229.773 130.208 C 230.440 129.178,231.359 127.472,231.817 126.417 C 232.274 125.363,232.788 124.196,232.959 123.824 C 233.266 123.157,234.404 121.956,237.151 119.400 C 238.431 118.209,238.669 117.850,240.002 115.112 C 241.441 112.156,241.480 112.101,243.614 110.012 C 245.868 107.806,246.839 106.205,249.046 101.063 C 249.641 99.678,250.614 98.506,252.100 97.386 C 254.267 95.752,255.275 94.510,256.386 92.106 C 257.397 89.919,258.360 88.639,259.980 87.330 C 261.554 86.059,262.598 84.726,263.181 83.248 C 264.513 79.868,266.145 77.257,268.412 74.877 C 270.457 72.730,271.399 71.385,272.669 68.800 C 273.721 66.660,274.309 65.941,276.262 64.411 C 278.039 63.019,278.704 62.117,280.198 59.073 C 281.351 56.722,281.575 56.409,283.531 54.426 C 285.609 52.319,285.649 52.260,288.003 47.835 C 290.275 43.566,290.463 43.283,292.288 41.382 C 293.948 39.652,294.330 39.116,295.231 37.247 C 296.770 34.056,297.813 32.578,299.500 31.200 C 301.459 29.599,302.170 28.731,303.160 26.734 C 304.274 24.485,306.047 21.841,307.722 19.926 C 310.289 16.994,310.838 16.136,312.711 12.117 C 313.465 10.501,314.603 9.177,316.630 7.557 C 317.141 7.148,317.929 6.249,318.380 5.559 L 319.200 4.303 319.200 2.152 L 319.200 0.000 240.600 0.000 L 162.000 0.000 162.004 1.850 C 162.008 3.546,161.918 3.983,160.921 7.100 C 160.323 8.970,159.594 11.355,159.301 12.400 C 158.606 14.877,157.513 17.180,156.256 18.812 C 154.058 21.669,152.873 25.074,151.512 32.449 C 150.718 36.751,149.967 38.616,148.185 40.711 C 146.355 42.862,145.116 45.755,143.985 50.518 C 143.238 53.661,142.301 55.734,140.907 57.328 L 140.014 58.348 138.957 58.155 C 138.376 58.049,136.505 57.756,134.800 57.504 C 120.765 55.426,116.389 53.541,113.625 48.384 C 112.164 45.658,111.935 44.672,112.090 41.759 C 112.448 35.028,112.611 34.655,116.783 31.018 C 119.396 28.741,119.535 28.216,118.310 25.243 C 116.488 20.820,113.125 17.318,109.040 15.591 L 107.981 15.142 106.340 15.588 C 100.432 17.195,98.783 18.003,96.507 20.410 C 95.494 21.482,93.900 22.612,92.685 23.119 C 91.467 23.628,84.725 21.750,83.441 20.545 C 82.719 19.866,81.284 17.590,80.226 15.445 C 78.931 12.821,78.894 12.712,78.206 9.429 C 77.875 7.851,77.424 5.951,77.202 5.208 C 76.920 4.261,76.800 3.280,76.800 1.928 L 76.800 0.000 66.900 0.000 L 57.000 0.000 56.992 1.650 M70.464 48.512 C 75.497 49.666,76.477 50.203,78.500 52.919 C 79.805 54.671,81.271 56.173,83.100 57.635 C 85.766 59.764,85.753 59.733,86.606 66.124 C 86.937 68.602,86.315 70.465,84.007 73.900 C 83.489 74.670,82.714 75.840,82.283 76.500 C 79.940 80.089,72.837 85.361,68.666 86.605 C 67.586 86.927,64.444 86.163,60.858 84.705 C 59.288 84.067,51.565 75.524,50.320 73.047 C 48.526 69.481,48.384 68.162,49.205 62.748 C 49.722 59.338,49.920 59.007,52.872 56.613 C 54.265 55.484,56.800 52.644,56.800 52.213 C 56.800 51.956,58.633 50.189,59.413 49.694 C 59.915 49.376,61.013 49.090,63.113 48.730 C 68.105 47.876,67.736 47.887,70.464 48.512 M129.347 74.932 C 133.155 75.106,133.712 75.944,131.586 78.300 C 130.734 79.245,130.398 80.088,130.088 82.063 C 129.929 83.073,129.489 84.890,129.110 86.100 C 128.730 87.310,128.153 89.335,127.827 90.600 C 126.876 94.288,125.776 96.874,124.432 98.578 L 124.055 99.057 121.678 98.643 C 120.370 98.416,118.513 98.124,117.551 97.994 L 115.803 97.759 114.797 96.659 C 113.836 95.607,112.200 92.637,112.200 91.943 C 112.200 91.376,112.977 88.181,113.628 86.071 C 114.383 83.625,115.224 82.409,117.509 80.463 C 118.384 79.718,119.820 78.426,120.700 77.593 C 124.018 74.453,123.352 74.657,129.347 74.932 M304.200 277.212 C 306.770 277.385,308.152 277.578,309.400 277.938 C 310.335 278.209,312.225 278.680,313.600 278.986 C 317.380 279.828,319.398 281.067,321.346 283.745 C 321.889 284.490,322.775 285.505,323.316 286.000 C 327.283 289.627,327.734 290.502,328.215 295.500 C 329.369 307.490,328.015 316.221,324.660 318.433 C 322.057 320.148,321.493 320.572,320.787 321.337 C 320.356 321.805,319.671 322.709,319.266 323.344 C 317.197 326.595,316.857 326.803,312.200 327.669 C 306.714 328.690,302.260 328.813,296.500 328.101 C 291.004 327.423,290.350 327.079,287.904 323.589 C 286.772 321.973,285.880 321.149,283.927 319.916 C 280.991 318.062,280.448 317.071,279.411 311.676 C 277.667 302.597,278.615 292.339,281.628 287.693 C 284.619 283.081,288.851 280.040,294.100 278.731 C 295.640 278.348,297.620 277.762,298.500 277.430 C 299.380 277.098,300.235 276.860,300.400 276.902 C 300.565 276.943,302.275 277.083,304.200 277.212 " stroke="none" fill="#ffffff" fill-rule="evenodd"></path><path id="path1" d="M4.157 2.050 L 4.100 4.100 2.050 4.157 L 0.000 4.214 0.000 30.407 L 0.000 56.600 2.720 56.600 C 13.854 56.600,17.002 55.271,21.181 48.805 C 23.182 45.709,23.415 44.342,22.822 39.160 C 22.407 35.528,22.318 35.350,20.018 33.514 C 16.649 30.826,15.743 28.661,16.709 25.600 C 18.470 20.017,20.262 18.234,26.169 16.185 L 28.038 15.537 29.667 16.203 C 31.912 17.121,33.317 17.980,34.860 19.379 C 36.520 20.882,38.917 21.959,42.746 22.919 C 44.001 23.234,44.035 23.231,45.658 22.694 C 54.198 19.870,56.927 14.803,56.992 1.650 L 57.000 0.000 30.607 -0.000 L 4.214 -0.000 4.157 2.050 M76.800 1.928 C 76.800 3.280,76.920 4.261,77.202 5.208 C 77.424 5.951,77.875 7.851,78.206 9.429 C 78.894 12.712,78.931 12.821,80.226 15.445 C 81.284 17.590,82.719 19.866,83.441 20.545 C 84.725 21.750,91.467 23.628,92.685 23.119 C 93.900 22.612,95.494 21.482,96.507 20.410 C 98.783 18.003,100.432 17.195,106.340 15.588 L 107.981 15.142 109.040 15.591 C 113.125 17.318,116.488 20.820,118.310 25.243 C 119.535 28.216,119.396 28.741,116.783 31.018 C 112.611 34.655,112.448 35.028,112.090 41.759 C 111.935 44.672,112.164 45.658,113.625 48.384 C 116.389 53.541,120.765 55.426,134.800 57.504 C 136.505 57.756,138.376 58.049,138.957 58.155 L 140.014 58.348 140.907 57.328 C 142.301 55.734,143.238 53.661,143.985 50.518 C 145.116 45.755,146.355 42.862,148.185 40.711 C 149.967 38.616,150.718 36.751,151.512 32.449 C 152.873 25.074,154.058 21.669,156.256 18.812 C 157.513 17.180,158.606 14.877,159.301 12.400 C 159.594 11.355,160.323 8.970,160.921 7.100 C 161.918 3.983,162.008 3.546,162.004 1.850 L 162.000 0.000 119.400 0.000 L 76.800 0.000 76.800 1.928 M319.200 2.152 L 319.200 4.303 318.380 5.559 C 317.929 6.249,317.141 7.148,316.630 7.557 C 314.603 9.177,313.465 10.501,312.711 12.117 C 310.838 16.136,310.289 16.994,307.722 19.926 C 306.047 21.841,304.274 24.485,303.160 26.734 C 302.170 28.731,301.459 29.599,299.500 31.200 C 297.813 32.578,296.770 34.056,295.231 37.247 C 294.330 39.116,293.948 39.652,292.288 41.382 C 290.463 43.283,290.275 43.566,288.003 47.835 C 285.649 52.260,285.609 52.319,283.531 54.426 C 281.575 56.409,281.351 56.722,280.198 59.073 C 278.704 62.117,278.039 63.019,276.262 64.411 C 274.309 65.941,273.721 66.660,272.669 68.800 C 271.399 71.385,270.457 72.730,268.412 74.877 C 266.145 77.257,264.513 79.868,263.181 83.248 C 262.598 84.726,261.554 86.059,259.980 87.330 C 258.360 88.639,257.397 89.919,256.386 92.106 C 255.275 94.510,254.267 95.752,252.100 97.386 C 250.614 98.506,249.641 99.678,249.046 101.063 C 246.839 106.205,245.868 107.806,243.614 110.012 C 241.480 112.101,241.441 112.156,240.002 115.112 C 238.669 117.850,238.431 118.209,237.151 119.400 C 234.404 121.956,233.266 123.157,232.959 123.824 C 232.788 124.196,232.274 125.363,231.817 126.417 C 231.359 127.472,230.440 129.178,229.773 130.208 L 228.561 132.083 228.773 133.136 C 229.307 135.797,230.575 137.378,232.862 138.236 L 234.100 138.700 271.149 138.746 L 308.199 138.793 309.196 139.298 C 310.434 139.925,310.690 140.312,311.191 142.309 C 312.565 147.784,311.969 149.740,308.157 152.271 C 306.693 153.243,305.660 154.385,304.594 156.212 C 303.499 158.087,302.102 159.490,300.261 160.565 C 298.467 161.612,297.145 162.944,296.357 164.500 C 295.110 166.962,293.907 168.480,291.921 170.098 C 291.382 170.537,290.437 171.617,289.821 172.498 C 288.434 174.480,286.606 176.343,284.456 177.967 C 283.552 178.650,282.671 179.409,282.498 179.654 C 282.326 179.899,281.093 181.765,279.759 183.800 C 277.570 187.139,277.066 187.763,274.597 190.200 C 272.844 191.929,271.327 193.653,270.380 194.993 C 269.203 196.657,268.572 197.332,267.300 198.283 C 265.271 199.801,263.771 201.296,262.361 203.207 C 261.749 204.035,260.580 205.295,259.763 206.007 C 257.867 207.658,257.004 208.755,255.793 211.055 C 254.532 213.450,253.743 214.348,251.739 215.670 C 249.012 217.468,247.771 218.977,247.107 221.300 C 246.627 222.979,245.557 224.934,244.516 226.032 C 242.969 227.664,242.848 227.939,243.424 228.515 C 244.004 229.095,246.391 229.937,249.915 230.804 C 253.515 231.689,256.395 233.193,258.900 235.495 C 261.003 237.427,263.104 238.532,266.357 239.416 L 268.015 239.867 269.857 239.316 C 272.080 238.651,274.052 237.692,275.800 236.426 C 278.317 234.603,280.862 233.299,283.621 232.418 C 286.238 231.583,287.578 228.968,287.805 224.250 C 288.380 212.320,289.405 209.360,293.250 208.526 C 299.333 207.206,306.580 206.938,310.025 207.907 C 313.821 208.974,316.033 210.008,317.041 211.185 C 317.791 212.061,317.682 211.533,318.596 218.700 C 319.653 226.991,319.838 228.085,320.373 229.193 C 320.933 230.355,322.853 232.562,323.633 232.941 C 323.890 233.066,324.780 233.485,325.611 233.873 C 326.443 234.261,327.912 235.215,328.877 235.993 C 331.496 238.105,332.343 238.414,337.943 239.302 C 340.803 239.755,342.704 238.841,345.016 235.899 C 346.269 234.304,347.510 233.380,349.307 232.706 C 350.073 232.418,351.960 231.655,353.500 231.010 L 356.300 229.838 360.134 229.598 L 363.968 229.359 367.434 231.453 C 369.340 232.604,371.174 233.686,371.510 233.858 C 373.298 234.770,374.172 236.177,375.598 240.442 C 376.851 244.191,376.853 244.167,375.061 249.700 C 374.208 252.335,373.865 252.828,371.776 254.418 C 368.766 256.710,367.680 258.667,367.284 262.518 C 367.136 263.958,366.938 265.779,366.844 266.565 C 366.677 267.962,366.701 268.086,367.911 272.083 C 369.517 277.382,370.514 278.952,373.097 280.243 C 374.853 281.121,376.477 282.117,378.400 283.496 C 379.335 284.167,380.415 284.818,380.800 284.943 C 382.911 285.628,384.568 286.012,393.600 287.909 C 395.154 288.235,396.565 288.393,397.950 288.396 L 400.000 288.400 400.000 146.307 L 400.000 4.214 397.950 4.157 L 395.900 4.100 395.843 2.050 L 395.786 0.000 357.493 0.000 L 319.200 0.000 319.200 2.152 M66.700 48.140 C 63.429 48.574,60.039 49.297,59.413 49.694 C 58.633 50.189,56.800 51.956,56.800 52.213 C 56.800 52.644,54.265 55.484,52.872 56.613 C 49.920 59.007,49.722 59.338,49.205 62.748 C 48.384 68.162,48.526 69.481,50.320 73.047 C 51.565 75.524,59.288 84.067,60.858 84.705 C 64.444 86.163,67.586 86.927,68.666 86.605 C 72.837 85.361,79.940 80.089,82.283 76.500 C 82.714 75.840,83.489 74.670,84.007 73.900 C 86.315 70.465,86.937 68.602,86.606 66.124 C 85.753 59.733,85.766 59.764,83.100 57.635 C 81.271 56.173,79.805 54.671,78.500 52.919 C 76.477 50.203,75.497 49.666,70.464 48.512 C 68.279 48.011,67.927 47.977,66.700 48.140 M123.096 75.439 C 122.658 75.791,121.580 76.760,120.700 77.593 C 119.820 78.426,118.384 79.718,117.509 80.463 C 115.224 82.409,114.383 83.625,113.628 86.071 C 112.977 88.181,112.200 91.376,112.200 91.943 C 112.200 92.637,113.836 95.607,114.797 96.659 L 115.803 97.759 117.551 97.994 C 118.513 98.124,120.370 98.416,121.678 98.643 L 124.055 99.057 124.432 98.578 C 125.776 96.874,126.876 94.288,127.827 90.600 C 128.153 89.335,128.730 87.310,129.110 86.100 C 129.489 84.890,129.929 83.073,130.088 82.063 C 130.398 80.088,130.734 79.245,131.586 78.300 C 133.712 75.944,133.155 75.106,129.347 74.932 C 124.195 74.696,124.001 74.712,123.096 75.439 M-0.000 235.372 L 0.000 395.786 2.050 395.843 L 4.100 395.900 4.157 397.950 L 4.214 400.000 148.907 400.000 L 293.600 400.000 293.600 397.881 C 293.600 395.464,293.407 394.655,291.979 391.074 C 290.795 388.103,290.154 385.937,289.400 382.351 C 288.521 378.178,286.758 375.757,283.300 373.975 C 282.420 373.521,281.059 372.666,280.276 372.074 C 277.733 370.152,275.313 369.145,269.863 367.744 L 268.026 367.272 263.924 367.908 C 258.795 368.704,258.170 369.046,255.459 372.545 C 253.704 374.810,252.704 375.389,249.300 376.108 C 247.980 376.386,246.225 376.759,245.400 376.936 L 243.900 377.258 241.600 376.353 C 235.132 373.808,234.918 373.621,232.049 368.042 L 229.998 364.053 230.584 361.577 C 230.907 360.214,231.326 358.303,231.517 357.330 C 232.001 354.851,233.193 352.899,235.717 350.447 C 238.069 348.163,238.523 347.231,239.901 341.855 L 240.375 340.010 240.001 338.702 C 239.129 335.654,237.794 332.810,236.104 330.400 C 234.841 328.599,234.377 327.708,233.581 325.548 C 232.206 321.818,229.825 319.554,226.700 319.004 C 220.828 317.969,213.310 315.758,211.542 314.544 C 210.689 313.959,209.057 311.688,208.160 309.837 L 207.353 308.174 207.463 302.337 C 207.659 292.001,207.789 291.370,210.100 289.539 C 211.689 288.281,211.823 288.254,217.730 288.008 C 229.938 287.499,230.644 287.222,232.699 282.134 C 233.709 279.632,234.821 277.673,236.339 275.722 C 238.619 272.792,240.131 269.098,239.895 267.034 C 239.109 260.162,238.683 259.049,235.843 256.445 C 233.864 254.631,233.147 253.548,231.908 250.507 C 230.980 248.232,229.560 245.729,228.577 244.635 L 227.980 243.971 226.599 245.273 C 225.153 246.637,223.189 248.032,221.000 249.249 C 219.365 250.158,218.168 251.414,216.785 253.671 C 215.647 255.529,208.711 263.009,204.872 266.520 C 202.954 268.274,201.098 270.715,198.929 274.336 C 197.448 276.811,197.084 277.184,194.499 278.882 C 190.820 281.299,185.596 287.035,183.715 290.723 C 182.520 293.064,181.813 293.872,179.658 295.356 C 177.600 296.772,176.524 297.844,175.495 299.500 C 174.512 301.082,173.162 302.465,171.769 303.316 C 170.305 304.209,168.677 305.978,167.820 307.608 C 166.724 309.692,165.881 310.705,164.033 312.163 C 162.338 313.500,161.559 314.444,160.288 316.700 C 159.498 318.104,157.956 319.575,156.206 320.597 C 154.200 321.768,153.057 322.963,151.995 325.000 C 151.261 326.408,150.710 327.095,148.791 329.000 C 147.516 330.265,146.008 331.975,145.440 332.800 C 144.104 334.737,142.855 336.031,140.532 337.880 C 139.084 339.032,138.398 339.756,137.540 341.038 C 136.262 342.946,133.654 345.960,132.356 347.031 C 131.296 347.905,129.162 350.680,126.700 354.384 C 125.102 356.789,124.720 357.227,123.300 358.287 C 121.275 359.797,119.774 361.293,118.362 363.205 C 117.751 364.033,116.812 365.060,116.275 365.488 C 113.803 367.459,112.945 368.504,111.482 371.324 C 110.309 373.584,109.622 374.398,107.924 375.537 C 105.845 376.931,105.055 377.710,103.889 379.513 C 102.553 381.578,101.374 382.603,99.059 383.715 C 96.955 384.724,96.167 385.572,95.376 387.673 C 94.869 389.020,93.556 390.892,92.589 391.649 L 91.925 392.169 91.013 391.703 C 88.186 390.260,87.881 389.059,88.971 383.645 C 89.842 379.313,89.870 379.257,92.191 377.194 C 94.112 375.487,94.639 374.568,95.897 370.735 C 97.186 366.808,97.986 365.160,100.244 361.773 C 102.308 358.679,102.877 357.200,104.009 352.000 C 105.044 347.239,105.451 346.375,107.821 343.900 C 110.500 341.102,110.451 341.204,112.418 334.328 C 113.525 330.459,114.253 329.046,116.353 326.702 C 117.981 324.883,118.544 323.464,120.398 316.500 C 120.999 314.244,122.315 311.597,123.866 309.528 C 126.055 306.607,126.753 305.146,127.715 301.464 C 128.782 297.382,129.711 295.513,131.670 293.505 C 133.357 291.776,135.800 286.563,135.800 284.693 C 135.800 283.161,138.485 277.129,140.115 275.000 C 141.556 273.117,142.570 270.976,143.482 267.891 C 144.826 263.346,146.183 260.554,148.201 258.176 C 150.340 255.658,151.190 253.762,152.408 248.800 C 153.536 244.201,154.251 242.455,155.888 240.300 C 157.337 238.393,157.853 237.396,160.016 232.329 L 161.881 227.958 161.315 226.877 C 160.604 225.519,158.808 223.840,157.305 223.128 L 156.154 222.583 119.927 222.609 L 83.700 222.635 82.321 222.115 C 79.037 220.879,78.309 220.228,78.716 218.889 C 78.881 218.345,79.186 216.409,79.393 214.586 C 80.119 208.214,81.701 203.630,84.185 200.711 C 85.967 198.616,86.718 196.751,87.512 192.449 C 88.867 185.107,90.057 181.677,92.231 178.840 C 93.934 176.618,94.783 174.626,95.889 170.257 C 97.378 164.378,98.021 162.923,100.244 160.419 C 102.191 158.224,102.719 156.967,103.508 152.649 C 105.178 143.504,106.126 140.535,108.024 138.506 C 110.050 136.341,111.144 134.141,112.007 130.500 C 112.241 129.510,112.790 127.631,113.227 126.323 C 114.100 123.708,114.103 123.340,113.270 121.800 C 112.490 120.358,111.639 119.883,108.279 119.014 C 107.255 118.749,105.900 117.572,104.356 115.606 C 101.851 112.418,101.075 112.054,95.948 111.672 L 91.937 111.372 89.818 112.076 C 82.666 114.452,81.372 116.072,78.904 125.739 C 77.321 131.938,76.716 132.734,72.400 134.291 C 68.388 135.739,67.612 135.739,63.600 134.291 C 59.285 132.734,59.076 132.442,57.409 125.628 C 55.768 118.924,52.105 114.730,46.210 112.803 C 43.947 112.064,44.034 112.064,39.675 112.799 C 35.501 113.502,35.550 113.477,32.577 116.439 C 29.888 119.118,28.392 119.946,27.122 119.459 C 21.849 117.437,18.599 114.615,16.580 110.305 C 15.277 107.525,16.079 105.267,19.600 101.800 L 21.530 99.900 22.256 97.600 C 22.656 96.335,23.170 94.554,23.398 93.643 L 23.812 91.986 23.111 89.890 C 20.993 83.561,16.396 79.053,10.300 77.327 C 9.310 77.046,7.645 76.439,6.600 75.978 C 4.795 75.181,4.582 75.134,2.350 75.048 L -0.000 74.958 -0.000 235.372 M298.500 277.430 C 297.620 277.762,295.640 278.348,294.100 278.731 C 288.851 280.040,284.619 283.081,281.628 287.693 C 278.615 292.339,277.667 302.597,279.411 311.676 C 280.448 317.071,280.991 318.062,283.927 319.916 C 285.880 321.149,286.772 321.973,287.904 323.589 C 290.350 327.079,291.004 327.423,296.500 328.101 C 302.260 328.813,306.714 328.690,312.200 327.669 C 316.857 326.803,317.197 326.595,319.266 323.344 C 319.671 322.709,320.356 321.805,320.787 321.337 C 321.493 320.572,322.057 320.148,324.660 318.433 C 328.015 316.221,329.369 307.490,328.215 295.500 C 327.734 290.502,327.283 289.627,323.316 286.000 C 322.775 285.505,321.889 284.490,321.346 283.745 C 319.398 281.067,317.380 279.828,313.600 278.986 C 312.225 278.680,310.335 278.209,309.400 277.938 C 308.152 277.578,306.770 277.385,304.200 277.212 C 302.275 277.083,300.565 276.943,300.400 276.902 C 300.235 276.860,299.380 277.098,298.500 277.430 M393.800 313.022 C 392.354 313.253,387.328 314.100,383.200 314.808 L 379.900 315.375 378.532 316.837 C 377.130 318.336,374.770 321.683,373.889 323.422 C 373.617 323.959,372.758 325.135,371.981 326.036 C 370.640 327.590,369.489 329.531,368.875 331.272 C 368.432 332.526,367.891 339.649,368.168 340.573 C 368.504 341.693,369.795 343.564,371.015 344.700 C 374.266 347.725,374.153 347.558,375.979 352.068 L 377.657 356.215 377.555 360.161 L 377.452 364.107 376.731 365.538 C 373.979 371.004,370.642 374.096,365.348 376.089 L 364.000 376.597 362.747 376.125 C 359.863 375.039,357.665 373.688,355.388 371.600 C 353.164 369.561,351.844 368.598,349.817 367.537 L 348.100 366.638 344.082 366.414 L 340.064 366.191 338.282 366.876 C 337.302 367.253,335.420 367.898,334.100 368.308 C 330.616 369.391,329.057 370.208,327.139 371.956 C 326.238 372.777,325.050 373.744,324.500 374.104 C 321.691 375.942,320.397 378.507,320.010 383.000 C 319.664 387.009,319.088 391.533,318.606 394.014 C 318.370 395.229,318.201 396.915,318.201 398.050 L 318.200 400.000 356.993 400.000 L 395.786 400.000 395.843 397.950 L 395.900 395.900 397.950 395.843 L 400.000 395.786 400.000 354.293 L 400.000 312.800 397.450 312.823 C 396.048 312.836,394.405 312.926,393.800 313.022 " stroke="none" fill="#9600ff" fill-rule="evenodd"></path></g></svg>